<?xml version="1.0" encoding="utf-8"?>
<!-- Generator: Adobe Illustrator 19.1.0, SVG Export Plug-In . SVG Version: 6.00 Build 0)  -->
<svg version="1.1" id="gwd-image_1" xmlns="http://www.w3.org/2000/svg" xmlns:xlink="http://www.w3.org/1999/xlink" x="0px"
	 y="0px" viewBox="-319 336.3 640 129.4" style="enable-background:new -319 336.3 640 129.4;" xml:space="preserve">
<style type="text/css">
	.st0{fill:#231F20;}
</style>
<g>
	<path class="st0" d="M-21.9,356.3h-5.7l0,0l0,0c-2.2,0-4.8,1.8-5.7,4l0,0l-37.3,85.4h5.7l0,0l0,0c2.2,0,4.7-1.8,5.7-4l0,0
		L-21.9,356.3z"/>
	<polygon class="st0" points="-263.8,396.4 -289.5,396.4 -289.5,374 -299,374 -299,428 -289.5,428 -289.5,405.2 -263.8,405.2 
		-263.8,428 -254.3,428 -254.3,374 -263.8,374 	"/>
	<polygon class="st0" points="-92.2,374 -136,374 -136,382.8 -118.9,382.8 -118.9,428 -109.4,428 -109.4,382.8 -92.2,382.8 	"/>
	<path class="st0" d="M-221.3,373.6L-245,428h5.7l0,0c2.3,0,4.8-1.8,5.7-4l0,0l3.8-9h25.5l3.8,9l0,0c1,2.2,3.5,4,5.7,4l0,0h6
		l-23.8-54.4H-221.3z M-226.3,406.6l9.3-21.6l9.3,21.6H-226.3z"/>
	<path class="st0" d="M-70,373.6L-93.8,428h5.7l0,0c2.3,0,4.8-1.8,5.7-4l0,0l3.8-9H-67l3.7-8.4H-75l9.3-21.6l5.9,13.7l4.8-10.9
		l-6.1-14.1H-70V373.6z"/>
	<path class="st0" d="M-159.6,396.7c-10.3-2.5-12.8-4.3-12.8-8.5V388c0-3.5,3.2-6.4,8.8-6.4c3.9,0,7.7,1.2,11.5,3.4
		c0.6,0.4,1.3,0.6,2.1,0.6c1.4,0,2.6-0.7,3.4-1.7l0,0l0.1-0.1l0,0l2.7-3.8c-5.5-4.4-11.7-6.8-19.6-6.8c-10.7,0-18.4,6.4-18.4,15.7
		v0.2c0,9.9,6.5,13.3,18,16.1c10,2.3,12.2,4.4,12.2,8.3v0.2c0,4.1-3.7,6.8-9.6,6.8c-5.4,0-9.8-1.6-13.9-4.6
		c-0.7-0.5-1.6-0.8-2.5-0.8c-1.3,0-2.5,0.6-3.3,1.6l-3,3.6c6.5,5.8,14.3,8.6,22.5,8.6c11.3,0,19.3-6,19.3-16.1v-0.2
		C-142.2,403.5-148.1,399.5-159.6,396.7z"/>
	<rect x="5.7" y="374" class="st0" width="9.5" height="54"/>
	<polygon class="st0" points="39.1,405 65.4,405 65.4,396.5 39.1,396.5 39.1,382.5 69.7,382.5 69.7,374 29.6,374 29.6,428 70.1,428 
		70.1,419.5 39.1,419.5 	"/>
	<polygon class="st0" points="270.1,405 296.3,405 296.3,396.5 270.1,396.5 270.1,382.5 300.6,382.5 300.6,374 260.6,374 260.6,428 
		301,428 301,419.5 270.1,419.5 	"/>
	<path class="st0" d="M174.6,374h-21.3v54h9.5v-17.4h10.7c11.9,0,21.6-6.3,21.6-18.4V392C195.1,381.2,187.2,374,174.6,374z
		 M185.5,392.4c0,5.6-4.5,9.6-11.6,9.6h-11v-19.4h11c7.1,0,11.6,3.3,11.6,9.6V392.4z"/>
	<path class="st0" d="M248.9,391.2V391c0-4.7-1.6-8.7-4.5-11.6c-3.5-3.4-8.8-5.4-15.6-5.4h-24.1v54h9.5v-18.8h11.9l11.2,15.9l0,0
		c1.2,1.7,3.3,2.9,5.1,2.9h8.1l-14.6-20.4C243.6,405.4,248.9,400.1,248.9,391.2z M214.3,400.8v-18.1h13.8c7,0,11.2,3.2,11.2,8.9v0.2
		c0,5.5-4.3,9-11.1,9H214.3L214.3,400.8z"/>
	<path class="st0" d="M110.4,402.2L90.6,374h-9.3v54h9.3v-37.7l16.2,23.2l0.1,0.1l0,0l0,0c0.8,1.1,2,1.7,3.4,1.7s2.6-0.7,3.4-1.7
		l0,0l0,0l0.1-0.1l16.2-23.2V428h9.3v-54H130L110.4,402.2z"/>
	<path class="st0" d="M-6,412.6v-0.2c0-8.9-5.9-13-17.4-15.8c-2.3-0.6-4.2-1.1-5.8-1.6l-3.8,8.6c1.6,0.5,3.4,1,5.3,1.4
		c10,2.3,12.2,4.4,12.2,8.3v0.2c0,4.1-3.7,6.8-9.6,6.8c-5.1,0-9.3-1.5-13.3-4.2l-3.6,8.2c5.1,2.9,10.8,4.4,16.7,4.4
		C-13.9,428.8-6,422.7-6,412.6z"/>
	<path class="st0" d="M-13.8,385.6c1.4,0,2.6-0.7,3.4-1.7l0,0l0.1-0.1l0,0l2.7-3.8c-3.7-3-7.7-5-12.3-6l-3.5,8.1
		c2.5,0.5,5.1,1.5,7.6,3C-15.2,385.4-14.5,385.6-13.8,385.6z"/>
</g>
</svg>
